<svg width="462" height="414" viewBox="0 0 462 414" fill="none" xmlns="http://www.w3.org/2000/svg">
<path d="M163.301 184.541C156.558 160.052 160.962 137.831 174.868 117.353C193.736 89.5691 212.714 61.8594 231.674 34.1373C235.563 28.4503 238.324 28.3953 242.179 34.0405C261.403 62.1871 280.852 90.1856 299.69 118.589C330.001 164.29 306.721 220.22 259.98 235.359C219.751 248.388 177.281 226.124 163.301 184.541ZM229.527 127.989C226.414 126.074 223.372 124.03 220.172 122.272C214.643 119.235 210.041 121.853 210.016 128.18C209.929 150.496 209.934 172.813 210.012 195.129C210.035 201.5 215.091 204.341 220.587 201.002C238.336 190.218 256.034 179.348 273.665 168.374C280.267 164.266 280.125 159.082 273.473 154.973C259.054 146.067 244.591 137.234 229.527 127.989Z" fill="#03E4FF"/>
<path d="M106.154 313.93C109.041 334.193 99.2502 350.994 82.0827 353.659C71.5213 355.299 60.6359 354.852 49.5098 355.359C49.5098 332.272 49.5098 310.059 49.5098 287.021C62.2856 287.795 75.4936 284.503 87.9635 290.213C97.8928 294.76 104.384 302.376 106.154 313.93ZM86.9663 338.55C95.8302 331.644 95.4488 315.219 91.2216 308.283C86.1718 299.998 73.9723 295.975 63.1187 299.179C63.1187 313.881 63.1187 328.558 63.1187 343.321C71.4964 343.593 79.555 344.608 86.9663 338.55Z" fill="#03E4FF"/>
<path d="M173.901 317.036C173.901 313.577 173.901 310.612 173.901 307.368C177.895 307.368 181.482 307.368 185.407 307.368C185.63 308.774 185.853 310.184 186.033 311.32C201.092 301.905 213.626 303.822 221.584 320.419C226.584 330.847 222.753 344.191 214.464 350.979C206.342 357.63 196.835 357.667 186.123 350.866C186.123 358.825 186.123 366.574 186.123 374.674C182.056 374.674 178.325 374.674 173.901 374.674C173.901 355.704 173.901 336.617 173.901 317.036ZM207.125 341.655C208.29 339.3 209.885 337.059 210.542 334.57C212.604 326.762 208.104 318.329 201.48 316.998C195.259 315.748 189.953 318.275 187.374 323.715C184.359 330.076 185.814 338.443 190.643 342.511C195.163 346.319 201.084 346.199 207.125 341.655Z" fill="#03E4FF"/>
<path d="M253.695 342.715C263.72 345.954 269.501 344.166 275.946 336.332C276.618 335.515 278.061 335.009 279.18 334.942C282.315 334.757 285.468 334.878 288.635 334.878C287.98 344.086 279.444 352.712 269.036 355.041C245.489 360.308 228.034 344.156 228.794 322.861C229.465 304.06 236.808 292.104 252.18 287.642C268.74 282.835 285.283 291.171 288.777 306.109C288.96 306.89 288.87 307.736 288.923 308.912C285.624 308.912 282.472 309.021 279.335 308.847C278.355 308.793 276.909 308.22 276.539 307.463C272.69 299.577 266.094 296.742 257.99 298.274C249.511 299.877 244.106 305.717 242.592 314.069C240.481 325.712 241.867 336.402 253.695 342.715Z" fill="#03E4FF"/>
<path d="M337.891 353.977C334.278 354.394 330.664 354.81 326.806 355.255C326.464 353.157 326.232 351.74 325.922 349.844C319.845 355.644 313.006 357.467 305.201 354.973C299.162 353.044 295.578 348.322 295.373 342.022C295.164 335.613 298.199 330.689 304.398 328.63C308.294 327.336 312.56 327.188 316.517 326.036C319.641 325.128 322.548 323.473 325.551 322.15C324.474 320.407 323.8 317.985 322.238 317.057C318.457 314.812 314.215 314.652 310.648 317.677C305.416 322.113 304.27 322.586 297.064 321.474C297.455 314.63 300.735 309.222 307.224 307.666C313.331 306.202 320.072 305.741 326.261 306.667C334.06 307.835 338.142 314.089 338.195 322.158C338.261 332.134 338.187 342.112 338.003 352.662C337.714 353.481 337.733 353.728 337.891 353.977ZM308.355 342.782C311.54 346.994 315.721 346.93 319.924 345.008C324.987 342.693 326.153 338.236 325.71 332.662C321.524 333.233 317.579 333.496 313.773 334.367C309.943 335.244 306.957 337.246 308.355 342.782Z" fill="#03E4FF"/>
<path d="M361.313 356.082C350.724 354.642 345.426 349.878 345.213 341.54C348.554 341.086 351.953 340.624 355.764 340.105C358.528 346.387 363.901 347.335 369.772 345.617C371.769 345.033 373.192 342.49 374.878 340.842C373.254 339.385 371.856 337.354 369.953 336.606C367.07 335.473 363.808 335.343 360.755 334.591C350.391 332.041 345.512 326.891 346.059 319.228C346.607 311.535 352.791 306.417 362.927 305.266C371.811 304.258 380.589 308.646 383.383 315.566C383.8 316.599 383.869 317.773 384.19 319.326C379.391 319.887 374.91 322.071 371.239 316.808C370.225 315.354 367.484 314.597 365.471 314.458C362.032 314.221 358.313 315.064 357.672 319.083C357.019 323.174 360.717 323.517 363.633 324.185C368.166 325.224 372.742 326.117 377.212 327.381C382.66 328.922 386.171 332.509 386.714 338.301C387.229 343.793 385.366 348.453 380.807 351.799C375.095 355.989 368.521 356.469 361.313 356.082Z" fill="#03E4FF"/>
<path d="M408.987 328.976C408.987 329.963 408.986 330.462 408.986 330.961C408.975 343.339 408.975 343.339 421.048 344.379C421.214 344.66 421.566 344.986 421.512 345.219C420.771 348.437 424.222 353.112 419.286 354.765C410.477 357.715 400.781 354.257 398.036 347.504C397.01 344.979 396.736 342.029 396.667 339.259C396.485 331.996 396.605 324.726 396.605 317.223C393.56 317.089 391.114 316.981 388.324 316.859C388.324 313.736 388.324 310.678 388.324 307.209C390.808 307.079 393.386 306.944 396.502 306.781C396.502 301.855 396.502 297.126 396.502 292.234C400.835 292.234 404.602 292.234 408.748 292.234C408.748 297 408.748 301.595 408.748 306.838C413.129 306.838 417.156 306.838 421.426 306.838C421.426 310.407 421.426 313.333 421.426 316.759C417.482 316.759 413.587 316.759 408.988 316.759C408.988 320.986 408.988 324.737 408.987 328.976Z" fill="#03E4FF"/>
<path d="M114.309 353.5C114.228 337.952 114.228 322.86 114.228 307.423C118.538 307.423 122.424 307.423 126.568 307.423C126.729 309.107 126.883 310.713 127.089 312.861C131.918 308.12 136.918 304.521 144.108 306.724C144.108 310.422 144.108 314.026 144.108 317.607C143.783 317.807 143.513 318.114 143.229 318.129C130.052 318.785 126.952 322.003 126.932 335.11C126.922 341.421 126.93 347.733 126.93 355.179C122.579 354.755 118.484 354.355 114.309 353.5Z" fill="#03E4FF"/>
<path d="M163.847 312.214C163.847 326.497 163.847 340.303 163.847 354.501C159.671 354.501 155.763 354.501 151.424 354.501C151.424 339.056 151.424 323.368 151.424 307.376C155.326 307.376 159.234 307.376 163.547 307.376C163.649 308.857 163.748 310.296 163.847 312.214Z" fill="#03E4FF"/>
<path d="M164.506 296.135C162.074 300.693 158.053 301.112 154.458 299.834C152.259 299.052 149.662 296.183 149.408 293.999C149.122 291.55 150.592 287.729 152.552 286.495C154.744 285.115 158.678 285.076 161.253 286.048C165.501 287.651 165.61 291.781 164.506 296.135Z" fill="#03E4FF"/>
<path d="M337.989 353.741C337.733 353.728 337.714 353.481 337.903 353.122C338.01 353.174 338.048 353.34 337.989 353.741Z" fill="#03E4FF"/>
</svg>
