<svg width="154" height="211" viewBox="0 0 154 211" fill="none" xmlns="http://www.w3.org/2000/svg">
<path d="M3.30086 155.541C-3.44195 131.052 0.961657 108.831 14.8679 88.3533C33.736 60.5691 52.7141 32.8594 71.6735 5.13729C75.563 -0.549733 78.3239 -0.60471 82.1794 5.04045C101.403 33.1871 120.852 61.1856 139.69 89.5886C170.001 135.29 146.721 191.22 99.9798 206.359C59.7507 219.388 17.2813 197.124 3.30086 155.541ZM69.5273 98.9891C66.4141 97.0739 63.3719 95.0295 60.1721 93.2721C54.6426 90.235 50.0411 92.8525 50.0163 99.1796C49.9291 121.496 49.934 143.813 50.0124 166.129C50.0348 172.5 55.0909 175.341 60.5872 172.002C78.3363 161.218 96.0336 150.348 113.665 139.374C120.267 135.266 120.125 130.082 113.473 125.973C99.0545 117.067 84.5906 108.234 69.5273 98.9891Z" 
fill="#03E4FF"/>
</svg>
